<svg width="27" height="30" viewBox="0 0 27 30" fill="none" xmlns="http://www.w3.org/2000/svg">
<path d="M13.5 18C13.075 18 12.719 17.856 12.432 17.568C12.145 17.28 12.001 16.924 12 16.5C11.999 16.076 12.143 15.72 12.432 15.432C12.721 15.144 13.077 15 13.5 15C13.923 15 14.2795 15.144 14.5695 15.432C14.8595 15.72 15.003 16.076 15 16.5C14.997 16.924 14.853 17.2805 14.568 17.5695C14.283 17.8585 13.927 18.002 13.5 18ZM7.5 18C7.075 18 6.719 17.856 6.432 17.568C6.145 17.28 6.001 16.924 6 16.5C5.999 16.076 6.143 15.72 6.432 15.432C6.721 15.144 7.077 15 7.5 15C7.923 15 8.2795 15.144 8.5695 15.432C8.8595 15.72 9.003 16.076 9 16.5C8.997 16.924 8.853 17.2805 8.568 17.5695C8.283 17.8585 7.927 18.002 7.5 18ZM19.5 18C19.075 18 18.719 17.856 18.432 17.568C18.145 17.28 18.001 16.924 18 16.5C17.999 16.076 18.143 15.72 18.432 15.432C18.721 15.144 19.077 15 19.5 15C19.923 15 20.2795 15.144 20.5695 15.432C20.8595 15.72 21.003 16.076 21 16.5C20.997 16.924 20.853 17.2805 20.568 17.5695C20.283 17.8585 19.927 18.002 19.5 18ZM13.5 24C13.075 24 12.719 23.856 12.432 23.568C12.145 23.28 12.001 22.924 12 22.5C11.999 22.076 12.143 21.72 12.432 21.432C12.721 21.144 13.077 21 13.5 21C13.923 21 14.2795 21.144 14.5695 21.432C14.8595 21.72 15.003 22.076 15 22.5C14.997 22.924 14.853 23.2805 14.568 23.5695C14.283 23.8585 13.927 24.002 13.5 24ZM7.5 24C7.075 24 6.719 23.856 6.432 23.568C6.145 23.28 6.001 22.924 6 22.5C5.999 22.076 6.143 21.72 6.432 21.432C6.721 21.144 7.077 21 7.5 21C7.923 21 8.2795 21.144 8.5695 21.432C8.8595 21.72 9.003 22.076 9 22.5C8.997 22.924 8.853 23.2805 8.568 23.5695C8.283 23.8585 7.927 24.002 7.5 24ZM19.5 24C19.075 24 18.719 23.856 18.432 23.568C18.145 23.28 18.001 22.924 18 22.5C17.999 22.076 18.143 21.72 18.432 21.432C18.721 21.144 19.077 21 19.5 21C19.923 21 20.2795 21.144 20.5695 21.432C20.8595 21.72 21.003 22.076 21 22.5C20.997 22.924 20.853 23.2805 20.568 23.5695C20.283 23.8585 19.927 24.002 19.5 24ZM3 30C2.175 30 1.469 29.7065 0.882 29.1195C0.295 28.5325 0.001 27.826 0 27V6C0 5.175 0.294 4.469 0.882 3.882C1.47 3.295 2.176 3.001 3 3H4.5V0H7.5V3H19.5V0H22.5V3H24C24.825 3 25.5315 3.294 26.1195 3.882C26.7075 4.47 27.001 5.176 27 6V27C27 27.825 26.7065 28.5315 26.1195 29.1195C25.5325 29.7075 24.826 30.001 24 30H3ZM3 27H24V12H3V27Z" fill="#008CFF"/>
</svg>
